<svg width="207" height="206" viewBox="0 0 207 206" fill="none" xmlns="http://www.w3.org/2000/svg">
<path d="M100.88 49.8871V0H206.593C206.711 2.697 206.932 5.29083 206.932 7.8994C206.961 39.3202 207.05 70.7409 206.947 102.162C206.785 156.234 165.239 201.73 112.537 205.65C57.8307 209.717 10.1395 172.446 1.35587 118.653C0.545295 113.657 0.456869 108.543 0 103.016H49.7102C50.5798 107.379 51.243 111.933 52.422 116.339C58.9213 140.907 81.2194 156.912 106.937 155.615C131.475 154.377 153.213 135.292 155.689 110.43C157.531 91.9485 156.544 73.1874 156.942 54.5442C157.045 49.6071 153.876 49.8724 150.56 49.8724C136.81 49.9018 123.074 49.8871 109.324 49.9018C106.657 49.9018 103.989 49.9018 100.894 49.9018L100.88 49.8871Z" fill="white"/>
<path d="M100.055 100.91H50.7275V51.4355H100.055V100.925V100.91Z" fill="white"/>
</svg>
