<svg width="237" height="237" viewBox="0 0 237 237" fill="none" xmlns="http://www.w3.org/2000/svg">
<circle cx="118.5" cy="118.5" r="118.5" fill="#D9D9D9"/>
<path d="M112.618 89.911V54H188.715C188.8 55.9414 188.959 57.8086 188.959 59.6863C188.98 82.3044 189.044 104.923 188.97 127.541C188.853 166.465 158.947 199.214 121.009 202.036C81.6292 204.964 47.2989 178.134 40.976 139.412C40.3925 135.816 40.3289 132.134 40 128.156H75.7837C76.4096 131.296 76.887 134.574 77.7357 137.746C82.4142 155.431 98.4654 166.953 116.978 166.019C134.642 165.128 150.29 151.389 152.072 133.492C153.398 120.189 152.687 106.684 152.974 93.2634C153.048 89.7094 150.767 89.9004 148.38 89.9004C138.482 89.9216 128.595 89.911 118.697 89.9216C116.776 89.9216 114.856 89.9216 112.628 89.9216L112.618 89.911Z" fill="black"/>
<path d="M112.023 126.639H76.5156V91.0254H112.023V126.65V126.639Z" fill="black"/>
</svg>
