<svg width="207" height="207" viewBox="0 0 207 207" fill="none" xmlns="http://www.w3.org/2000/svg">
<path d="M100.884 50.0375V0.150391H206.598C206.716 2.84739 206.937 5.44122 206.937 8.0498C206.966 39.4706 207.055 70.8913 206.952 102.312C206.789 156.385 165.244 201.88 112.542 205.8C57.8356 209.868 10.1444 172.596 1.36075 118.804C0.550178 113.808 0.461751 108.694 0.00488281 103.167H49.7151C50.5847 107.529 51.2478 112.083 52.4269 116.49C58.9262 141.058 81.2243 157.063 106.942 155.766C131.48 154.528 153.218 135.442 155.694 110.58C157.536 92.0989 156.549 73.3378 156.947 54.6946C157.05 49.7575 153.881 50.0228 150.565 50.0228C136.815 50.0522 123.079 50.0375 109.329 50.0522C106.662 50.0522 103.994 50.0522 100.899 50.0522L100.884 50.0375Z" fill="black"/>
<path d="M100.059 101.06H50.7324V51.5859H100.059V101.075V101.06Z" fill="black"/>
</svg>
