<?xml version="1.0" standalone="no"?>
<!DOCTYPE svg PUBLIC "-//W3C//DTD SVG 20010904//EN"
 "http://www.w3.org/TR/2001/REC-SVG-20010904/DTD/svg10.dtd">
<svg version="1.0" xmlns="http://www.w3.org/2000/svg"
 width="700.000000pt" height="700.000000pt" viewBox="0 0 700.000000 700.000000"
 preserveAspectRatio="xMidYMid meet">
<metadata>
Created by potrace 1.14, written by Peter Selinger 2001-2017
</metadata>
<g transform="translate(0.000000,700.000000) scale(0.100000,-0.100000)"
fill="#000000" stroke="none">
<path d="M4590 6994 c-8 -3 -22 -8 -30 -11 -8 -3 -20 -7 -26 -8 -6 -2 -83 -45
-170 -96 -88 -51 -181 -105 -209 -121 -27 -16 -57 -33 -65 -38 -30 -19 -166
-98 -210 -122 -55 -31 -136 -78 -255 -148 -49 -29 -108 -62 -130 -74 -22 -12
-44 -25 -50 -29 -21 -17 -427 -247 -436 -247 -5 0 -9 -4 -9 -10 0 -5 -4 -10
-10 -10 -5 0 -42 -19 -82 -43 -40 -24 -80 -46 -88 -50 -8 -4 -22 -11 -30 -17
-29 -19 -383 -220 -388 -220 -3 0 -13 -6 -21 -14 -9 -7 -44 -28 -77 -45 -78
-40 -135 -95 -170 -162 l-28 -54 -1 -585 c0 -574 0 -586 -21 -631 -26 -56 -89
-111 -192 -165 -116 -62 -189 -103 -270 -151 -41 -24 -76 -43 -80 -43 -3 0
-13 -6 -21 -14 -9 -7 -47 -30 -86 -51 -38 -20 -77 -43 -85 -51 -8 -7 -26 -17
-40 -23 -14 -6 -32 -15 -40 -21 -8 -5 -60 -35 -114 -66 -119 -68 -155 -98
-187 -161 -21 -42 -24 -62 -24 -148 0 -92 7 -188 19 -290 3 -22 8 -62 11 -90
4 -27 8 -63 10 -80 2 -16 6 -43 10 -60 3 -16 8 -43 11 -60 16 -90 48 -239 65
-300 11 -38 22 -79 24 -90 12 -55 112 -347 147 -425 11 -25 26 -61 35 -80 34
-78 135 -273 172 -335 23 -37 41 -71 41 -76 0 -5 4 -9 9 -9 5 0 11 -8 15 -18
6 -18 27 -54 37 -62 3 -3 19 -25 34 -50 16 -24 34 -50 41 -58 7 -7 21 -26 31
-42 9 -17 21 -30 25 -30 4 0 8 -4 8 -9 0 -5 9 -20 20 -33 11 -12 36 -43 56
-68 91 -113 274 -302 383 -397 25 -21 54 -47 65 -58 12 -11 39 -34 61 -50 22
-17 49 -38 60 -48 22 -20 206 -156 233 -172 9 -6 56 -36 104 -68 48 -31 90
-57 92 -57 3 0 22 -12 43 -26 110 -74 320 -154 478 -181 44 -7 318 -12 329 -5
5 3 23 6 40 7 50 4 96 14 186 42 47 15 87 28 90 28 58 16 376 182 470 245 8 6
26 16 40 23 34 16 219 125 252 148 15 11 32 19 37 19 5 0 16 6 23 13 7 7 24
18 38 24 14 7 43 24 65 37 78 48 128 76 136 76 5 0 9 5 9 10 0 6 5 10 11 10
10 0 124 64 179 100 8 6 22 13 30 17 41 19 223 132 285 177 82 60 195 169 254
245 48 62 132 201 149 246 6 17 20 55 31 85 23 60 46 144 55 200 3 19 9 46 13
60 4 14 9 975 11 2135 2 1590 0 2123 -9 2165 -12 59 -42 111 -86 151 -28 26
-378 229 -394 229 -5 0 -9 4 -9 8 0 4 -12 13 -27 19 -16 7 -35 17 -43 22 -18
13 -326 193 -390 228 -25 14 -53 32 -62 41 -10 8 -18 12 -18 8 0 -4 -19 6 -43
21 -23 15 -51 34 -62 41 -70 45 -152 75 -209 78 -34 2 -68 1 -76 -2z"/>
</g>
</svg>
